<svg width="54" height="32" viewBox="0 0 54 32" fill="none" xmlns="http://www.w3.org/2000/svg">
<path d="M0.531045 0.179065C4.06477 0.179108 10.0331 -0.720128 10.475 1.51128C10.9168 3.74269 18.6498 19.2741 20.6383 18.1639C22.6268 17.0537 21.5212 4.84125 21.5212 4.84125C21.5212 4.84125 18.3236 1.0641 19.9755 0.401111C21.0812 -0.0426333 31.3602 -0.0716036 31.4632 1.06724C31.9051 5.95174 31.0217 16.1646 32.1264 16.1649C33.2311 16.1653 38.9776 9.0946 43.3945 0.401111H52.2332C51.8277 4.13502 50.3625 8.12117 43.3945 17.4974C49.4754 22.9501 54 28.1549 54 31.9295H44.2785C40.1941 27.0374 34.2341 21.9379 32.4666 22.382C30.6991 22.8261 32.2638 31.2812 31.4632 31.2635C11.5244 37.6696 -3.00268 0.179022 0.531045 0.179065Z" fill="#FAEBD7"/>
</svg>
