<svg width="32" height="32" viewBox="0 0 32 32" fill="none" xmlns="http://www.w3.org/2000/svg">
<path fill-rule="evenodd" clip-rule="evenodd" d="M16 32C24.8366 32 32 24.8365 32 16C32 7.16344 24.8366 0 16 0C7.16344 0 0 7.16344 0 16C0 24.8365 7.16344 32 16 32ZM22.199 9.17363C21.4153 8.65118 7.83214 14.923 6.199 15.7042C4.56585 16.4855 9.59828 17.6634 11.4241 17.6634C12.7308 17.6634 18.9342 12.4389 18.9342 12.4389C18.5738 13.3399 17.2189 14.7382 15.9672 16.03C14.9508 17.0789 14.0024 18.0577 13.7097 18.643C13.0566 19.9491 18.9341 23.2144 20.2403 23.2144C21.5465 23.2144 22.9827 9.69608 22.199 9.17363Z" fill="#FAEBD7"/>
</svg>
